<?xml version="1.0" encoding="utf-8"?>
<!-- Generator: Adobe Illustrator 24.1.2, SVG Export Plug-In . SVG Version: 6.00 Build 0)  -->
<svg version="1.1" id="Слой_1" xmlns="http://www.w3.org/2000/svg" xmlns:xlink="http://www.w3.org/1999/xlink" x="0px" y="0px"
	 viewBox="0 0 408 120" style="enable-background:new 0 0 408 120;" xml:space="preserve">
<style type="text/css">
	.st0{fill:#D4031D;}
	.st1{fill:#FFFFFF;}
</style>
<polygon class="st0" points="49.7,99.7 119.7,69.7 119.7,119.7 49.7,119.7 "/>
<polygon class="st1" points="49.7,50.7 119.7,20.7 119.7,50.7 49.7,80.7 "/>
<polygon class="st1" points="49.7,-0.3 119.7,-0.3 49.7,29.7 "/>
<rect x="-0.3" y="-0.3" class="st1" width="30" height="120"/>
<g>
	<path class="st1" d="M160,103.9c0,0-0.1,0.1-0.1,0.1s-0.1,0.1-0.2,0.1c-0.1,0-0.2-0.1-0.4-0.2c-0.1-0.1-0.4-0.3-0.6-0.4
		c-0.3-0.1-0.6-0.3-0.9-0.4c-0.4-0.1-0.8-0.2-1.4-0.2c-0.8,0-1.4,0.1-2,0.4c-0.6,0.3-1.1,0.6-1.5,1.1s-0.7,1.1-0.9,1.8
		c-0.2,0.7-0.3,1.5-0.3,2.4c0,0.9,0.1,1.7,0.3,2.4s0.5,1.3,0.9,1.8c0.4,0.5,0.9,0.8,1.4,1.1c0.6,0.3,1.2,0.4,1.9,0.4
		c0.6,0,1.1-0.1,1.6-0.2c0.4-0.2,0.8-0.3,1-0.5c0.3-0.2,0.5-0.3,0.6-0.5c0.2-0.2,0.3-0.2,0.4-0.2s0.2,0,0.3,0.1l0.3,0.4
		c-0.2,0.3-0.4,0.5-0.8,0.7c-0.3,0.2-0.6,0.4-1,0.6s-0.8,0.3-1.2,0.4s-0.9,0.1-1.4,0.1c-0.8,0-1.6-0.2-2.3-0.4
		c-0.7-0.3-1.3-0.7-1.8-1.3s-0.9-1.3-1.1-2.1c-0.3-0.8-0.4-1.8-0.4-2.8c0-1,0.1-1.9,0.4-2.7s0.6-1.5,1.1-2.1
		c0.5-0.6,1.1-1.1,1.8-1.4s1.6-0.5,2.5-0.5c0.8,0,1.6,0.1,2.2,0.4c0.6,0.3,1.2,0.6,1.7,1.1L160,103.9z"/>
	<path class="st1" d="M174.3,103.2h-5.4v12h-1.3v-12h-5.4v-0.9h12.1L174.3,103.2L174.3,103.2z"/>
	<path class="st1" d="M178.4,104.5c0.6-0.8,1.2-1.4,2-1.9c0.8-0.5,1.6-0.7,2.6-0.7c1.6,0,2.8,0.6,3.7,1.7s1.3,2.8,1.3,4.9
		c0,0.9-0.1,1.8-0.4,2.7s-0.6,1.5-1.1,2.1s-1.1,1.1-1.8,1.4s-1.5,0.5-2.4,0.5c-0.9,0-1.6-0.2-2.3-0.5c-0.6-0.3-1.2-0.8-1.7-1.4v6.3
		h-1.3v-17.5h0.7c0.2,0,0.3,0.1,0.4,0.3L178.4,104.5z M178.5,112.3c0.3,0.4,0.5,0.7,0.8,0.9c0.3,0.3,0.6,0.5,0.9,0.6
		c0.3,0.2,0.6,0.3,1,0.3c0.3,0.1,0.7,0.1,1.1,0.1c0.8,0,1.4-0.1,2-0.4s1.1-0.7,1.4-1.2s0.7-1.1,0.9-1.8c0.2-0.7,0.3-1.5,0.3-2.3
		c0-1.9-0.4-3.3-1.1-4.3s-1.7-1.4-3.1-1.4c-0.9,0-1.6,0.2-2.3,0.7c-0.7,0.4-1.3,1.1-1.9,1.8L178.5,112.3L178.5,112.3z"/>
	<path class="st1" d="M197.1,102c0.9,0,1.8,0.2,2.5,0.5c0.7,0.3,1.4,0.8,1.9,1.3s0.9,1.3,1.1,2.1s0.4,1.7,0.4,2.8s-0.1,1.9-0.4,2.7
		c-0.3,0.8-0.6,1.5-1.1,2.1c-0.5,0.6-1.1,1-1.9,1.3c-0.7,0.3-1.6,0.5-2.5,0.5s-1.8-0.2-2.5-0.5c-0.7-0.3-1.4-0.8-1.9-1.3
		c-0.5-0.6-0.9-1.3-1.2-2.1c-0.3-0.8-0.4-1.7-0.4-2.7c0-1,0.1-1.9,0.4-2.8c0.3-0.8,0.6-1.5,1.2-2.1c0.5-0.6,1.1-1,1.9-1.3
		C195.3,102.2,196.2,102,197.1,102z M197.1,114.3c0.8,0,1.4-0.1,2-0.4c0.6-0.3,1.1-0.6,1.4-1.1s0.7-1.1,0.9-1.8
		c0.2-0.7,0.3-1.5,0.3-2.3c0-0.9-0.1-1.6-0.3-2.3c-0.2-0.7-0.5-1.3-0.9-1.8s-0.9-0.9-1.4-1.2s-1.3-0.4-2-0.4s-1.4,0.1-2,0.4
		s-1.1,0.7-1.4,1.2s-0.7,1.1-0.9,1.8c-0.2,0.7-0.3,1.5-0.3,2.3c0,0.9,0.1,1.7,0.3,2.3c0.2,0.7,0.5,1.3,0.9,1.8s0.9,0.9,1.4,1.1
		C195.6,114.2,196.3,114.3,197.1,114.3z"/>
	<path class="st1" d="M217.3,102.2v12.9h-1.2v-10.4c0-0.1,0-0.3,0-0.4s0-0.3,0-0.4c-0.1,0.1-0.1,0.2-0.2,0.3s-0.1,0.2-0.2,0.3
		c0,0-0.1,0.2-0.4,0.5c-0.2,0.3-0.5,0.7-0.9,1.2s-0.8,1-1.3,1.7s-0.9,1.2-1.4,1.9c-1.1,1.5-2.4,3.2-3.8,5.1
		c-0.1,0.1-0.1,0.2-0.2,0.2c-0.1,0.1-0.2,0.1-0.3,0.1h-0.7v-12.9h1.3v10.4c0,0.1,0,0.3,0,0.4s0,0.3,0,0.4c0.1-0.1,0.1-0.2,0.2-0.3
		s0.1-0.2,0.2-0.3c0,0,0.1-0.2,0.4-0.5s0.5-0.7,0.9-1.2c0.4-0.5,0.8-1,1.2-1.7s0.9-1.2,1.4-1.9c1.1-1.5,2.4-3.2,3.8-5.1
		c0.1-0.1,0.1-0.2,0.2-0.2c0.1-0.1,0.2-0.1,0.3-0.1L217.3,102.2L217.3,102.2z M212.2,99.3c0.8,0,1.3-0.2,1.7-0.6s0.5-1,0.5-1.9h0.7
		c0.1,0,0.2,0,0.2,0.1s0.1,0.2,0.1,0.3c0,0.8-0.3,1.5-0.8,2s-1.3,0.8-2.4,0.8c-1.1,0-1.9-0.3-2.4-0.8s-0.8-1.2-0.8-2
		c0-0.1,0-0.2,0.1-0.3s0.1-0.1,0.2-0.1h0.7c0,0.9,0.2,1.5,0.5,1.9C210.9,99.1,211.4,99.3,212.2,99.3z"/>
	<path class="st1" d="M232.4,102.2v12.9h-1.2v-10.4c0-0.1,0-0.3,0-0.4s0-0.3,0-0.4c-0.1,0.1-0.1,0.2-0.2,0.3s-0.1,0.2-0.2,0.3
		c0,0-0.1,0.2-0.4,0.5c-0.2,0.3-0.5,0.7-0.9,1.2s-0.8,1-1.3,1.7s-0.9,1.2-1.4,1.9c-1.1,1.5-2.4,3.2-3.8,5.1
		c-0.1,0.1-0.1,0.2-0.2,0.2c-0.1,0.1-0.2,0.1-0.3,0.1H222v-12.9h1.3v10.4c0,0.1,0,0.3,0,0.4s0,0.3,0,0.4c0.1-0.1,0.1-0.2,0.2-0.3
		s0.1-0.2,0.2-0.3c0,0,0.1-0.2,0.4-0.5s0.5-0.7,0.9-1.2c0.4-0.5,0.8-1,1.2-1.7s0.9-1.2,1.4-1.9c1.1-1.5,2.4-3.2,3.8-5.1
		c0.1-0.1,0.1-0.2,0.2-0.2c0.1-0.1,0.2-0.1,0.3-0.1L232.4,102.2L232.4,102.2L232.4,102.2z"/>
	<path class="st1" d="M247.3,102.2v12.9H246v-6.5h-7.7v6.5h-1.3v-12.9h1.3v5.5h7.7v-5.5H247.3z"/>
	<path class="st1" d="M268.9,115.2H268c-0.2,0-0.4,0-0.5-0.1s-0.2-0.2-0.3-0.3l-3.3-4.6c-0.3-0.4-0.5-0.6-0.9-0.8s-0.8-0.3-1.2-0.3
		h-1.6v6.2H259V109h-1.6c-0.4,0-0.8,0.1-1.2,0.3c-0.4,0.2-0.7,0.5-0.9,0.8l-3.3,4.6c-0.1,0.2-0.2,0.3-0.3,0.3
		c-0.1,0.1-0.3,0.1-0.5,0.1h-0.9l3.9-5.4c0.2-0.4,0.5-0.6,0.8-0.8c0.3-0.2,0.6-0.4,1.1-0.5c-0.3-0.1-0.6-0.2-0.9-0.4
		c-0.2-0.2-0.5-0.4-0.7-0.7l-3.8-5.1h1c0.3,0,0.5,0.1,0.6,0.4l3.4,4.6c0.2,0.3,0.5,0.5,0.8,0.7s0.7,0.3,1,0.3h1.5v-5.9h1.2v5.9h1.4
		c0.4,0,0.7-0.1,1-0.3s0.6-0.4,0.8-0.7l3.4-4.6c0.1-0.2,0.4-0.4,0.6-0.4h1l-3.8,5.1c-0.2,0.3-0.4,0.5-0.7,0.7s-0.5,0.3-0.9,0.4
		c0.4,0.1,0.8,0.3,1,0.5s0.6,0.5,0.8,0.8L268.9,115.2z"/>
	<path class="st1" d="M282.4,102.2v12.9h-1.2v-10.4c0-0.1,0-0.3,0-0.4s0-0.3,0-0.4c-0.1,0.1-0.1,0.2-0.2,0.3s-0.1,0.2-0.2,0.3
		c0,0-0.1,0.2-0.4,0.5c-0.2,0.3-0.5,0.7-0.9,1.2s-0.8,1-1.3,1.7s-0.9,1.2-1.4,1.9c-1.1,1.5-2.4,3.2-3.8,5.1c0,0.1-0.1,0.2-0.2,0.2
		c-0.1,0.1-0.2,0.1-0.3,0.1h-0.7v-12.9h1.3v10.4c0,0.1,0,0.3,0,0.4s0,0.3,0,0.4c0-0.1,0.1-0.2,0.2-0.3s0.1-0.2,0.2-0.3
		c0,0,0.1-0.2,0.4-0.5c0.2-0.3,0.5-0.7,0.9-1.2c0.4-0.5,0.8-1,1.2-1.7s0.9-1.2,1.4-1.9c1.1-1.5,2.4-3.2,3.8-5.1
		c0-0.1,0.1-0.2,0.2-0.2c0.1-0.1,0.2-0.1,0.3-0.1L282.4,102.2L282.4,102.2z"/>
	<path class="st1" d="M297.2,102.2v12.9h-1.3v-6.5h-7.7v6.5H287v-12.9h1.3v5.5h7.7v-5.5H297.2z"/>
	<path class="st1" d="M312.3,102.2v12.9h-1.2v-10.4c0-0.1,0-0.3,0-0.4s0-0.3,0-0.4c-0.1,0.1-0.1,0.2-0.2,0.3s-0.1,0.2-0.2,0.3
		c0,0-0.1,0.2-0.4,0.5c-0.2,0.3-0.5,0.7-0.9,1.2s-0.8,1-1.3,1.7s-0.9,1.2-1.4,1.9c-1.1,1.5-2.4,3.2-3.8,5.1c0,0.1-0.1,0.2-0.2,0.2
		c-0.1,0.1-0.2,0.1-0.3,0.1h-0.7v-12.9h1.3v10.4c0,0.1,0,0.3,0,0.4s0,0.3,0,0.4c0-0.1,0.1-0.2,0.2-0.3s0.1-0.2,0.2-0.3
		c0,0,0.1-0.2,0.4-0.5c0.2-0.3,0.5-0.7,0.9-1.2c0.4-0.5,0.8-1,1.2-1.7s0.9-1.2,1.4-1.9c1.1-1.5,2.4-3.2,3.8-5.1
		c0-0.1,0.1-0.2,0.2-0.2c0.1-0.1,0.2-0.1,0.3-0.1L312.3,102.2L312.3,102.2z"/>
	<path class="st1" d="M318.2,104.5c0.6-0.8,1.2-1.4,2-1.9c0.8-0.5,1.6-0.7,2.6-0.7c1.6,0,2.8,0.6,3.7,1.7c0.9,1.1,1.3,2.8,1.3,4.9
		c0,0.9-0.1,1.8-0.4,2.7s-0.6,1.5-1.1,2.1s-1.1,1.1-1.8,1.4s-1.5,0.5-2.4,0.5c-0.9,0-1.6-0.2-2.3-0.5c-0.6-0.3-1.2-0.8-1.7-1.4v6.3
		H317v-17.5h0.7c0.2,0,0.3,0.1,0.4,0.3L318.2,104.5z M318.2,112.3c0.3,0.4,0.5,0.7,0.8,0.9c0.3,0.3,0.6,0.5,0.9,0.6
		c0.3,0.2,0.6,0.3,1,0.3c0.3,0.1,0.7,0.1,1.1,0.1c0.8,0,1.4-0.1,2-0.4s1-0.7,1.4-1.2s0.7-1.1,0.9-1.8c0.2-0.7,0.3-1.5,0.3-2.3
		c0-1.9-0.4-3.3-1.1-4.3c-0.7-0.9-1.7-1.4-3-1.4c-0.9,0-1.6,0.2-2.3,0.7c-0.7,0.4-1.3,1.1-1.9,1.8L318.2,112.3L318.2,112.3z"/>
	<path class="st1" d="M342.1,102.2v12.9h-1.2v-10.4c0-0.1,0-0.3,0-0.4s0-0.3,0-0.4c-0.1,0.1-0.1,0.2-0.2,0.3s-0.1,0.2-0.2,0.3
		c0,0-0.1,0.2-0.4,0.5c-0.2,0.3-0.5,0.7-0.9,1.2s-0.8,1-1.3,1.7s-0.9,1.2-1.4,1.9c-1.1,1.5-2.4,3.2-3.8,5.1c0,0.1-0.1,0.2-0.2,0.2
		c-0.1,0.1-0.2,0.1-0.3,0.1h-0.7v-12.9h1.3v10.4c0,0.1,0,0.3,0,0.4s0,0.3,0,0.4c0-0.1,0.1-0.2,0.2-0.3s0.1-0.2,0.2-0.3
		c0,0,0.1-0.2,0.4-0.5c0.2-0.3,0.5-0.7,0.9-1.2c0.4-0.5,0.8-1,1.2-1.7s0.9-1.2,1.4-1.9c1.1-1.5,2.4-3.2,3.8-5.1
		c0-0.1,0.1-0.2,0.2-0.2c0.1-0.1,0.2-0.1,0.3-0.1L342.1,102.2L342.1,102.2z"/>
	<path class="st1" d="M357,102.2v12.9h-1.3v-6.5h-7.7v6.5h-1.3v-12.9h1.3v5.5h7.7v-5.5H357z"/>
	<path class="st1" d="M369.6,103.2h-6.7v12h-1.3v-12.9h7.9V103.2z"/>
</g>
<g id="ДИФ">
	<path class="st1" d="M405.2,30.9c-1.8-4.1-4.3-7.6-7.5-10.7s-7-5.5-11.4-7.4s-9.5-2.8-14.5-3v-8h-19v8c-5,0.2-9.8,1.2-14.2,3
		s-8.1,4.3-11.3,7.3c-3.2,3.1-5.6,6.6-7.4,10.7c-1.8,4.1-2.7,8.4-2.7,13c0,4.6,0.9,9,2.7,13.1c1.8,4.1,4.3,7.7,7.5,10.7
		s6.8,5.5,11.2,7.4c4.4,1.8,9.2,2.9,14.2,3v8.8h19V78c5-0.2,10.1-1.2,14.5-3s8.2-4.3,11.4-7.4s5.7-6.7,7.5-10.7
		c1.8-4.1,2.7-8.4,2.7-13.1C407.9,39.3,407,35,405.2,30.9z M352.9,65.9c-3-0.1-5.5-0.7-8-1.9c-2.5-1.2-4.5-2.7-6.3-4.7
		c-1.8-2-3.1-4.3-4.1-6.9c-1-2.6-1.4-5.5-1.4-8.5c0-3,0.5-5.8,1.5-8.4c1-2.6,2.4-4.9,4.2-6.9s3.7-3.6,6.2-4.7s5-1.8,8-1.9
		L352.9,65.9L352.9,65.9z M390.7,52.4c-1,2.6-2.4,4.9-4.2,6.9c-1.8,2-4,3.5-6.4,4.7c-2.5,1.2-5.3,1.8-8.3,1.9V21.9
		c3,0.1,5.8,0.7,8.3,1.9c2.5,1.2,4.6,2.8,6.4,4.7s3.2,4.3,4.2,6.9c1,2.6,1.5,5.4,1.5,8.4C392.2,46.9,391.7,49.8,390.7,52.4z"/>
	<polygon class="st1" points="291.3,32.7 262.5,87.3 244.9,87.3 244.9,2.7 263.4,2.7 262.5,57.1 291.3,2.5 308.9,2.5 308.9,87.3 
		291.3,87.3 	"/>
	<path class="st1" d="M222.9,71.8v-70h-7.2h-10c-26,0-47,32-47.1,70h-9.8v15h84v-15H222.9z M204.9,71.8c0,0-13.3,0-28.6,0
		c0-29,12.6-52.4,28.6-52.4C204.9,36.6,204.9,71.8,204.9,71.8z"/>
</g>
</svg>
