<?xml version="1.0" encoding="utf-8"?>
<!-- Generator: Adobe Illustrator 24.1.2, SVG Export Plug-In . SVG Version: 6.00 Build 0)  -->
<svg version="1.1" id="Слой_1" xmlns="http://www.w3.org/2000/svg" xmlns:xlink="http://www.w3.org/1999/xlink" x="0px" y="0px"
	 viewBox="0 0 384.9 105.9" style="enable-background:new 0 0 384.9 105.9;" xml:space="preserve">
<style type="text/css">
	.st0{fill:#D4031D;}
	.st1{fill:#242732;}
</style>
<g>
	<polygon class="st0" points="44.6,88.4 105.9,62.2 105.9,105.9 44.6,105.9 	"/>
	<polygon class="st1" points="44.6,45.6 105.9,19.3 105.9,45.6 44.6,71.8 	"/>
	<polygon class="st1" points="44.6,0.9 105.9,0.9 44.6,27.2 	"/>
	<rect x="0.9" y="0.9" class="st1" width="26.2" height="105"/>
</g>
<g id="ДИФ">
	<path class="st1" d="M382.2,39.8c-1.8-4.1-4.3-7.6-7.5-10.7c-3.2-3.1-7-5.5-11.4-7.4s-9.5-2.8-14.5-3v-8h-19v8
		c-5,0.2-9.8,1.2-14.2,3s-8.1,4.3-11.3,7.3c-3.2,3.1-5.6,6.6-7.4,10.7c-1.8,4.1-2.7,8.4-2.7,13c0,4.6,0.9,9,2.7,13.1
		c1.8,4.1,4.3,7.7,7.5,10.7s6.8,5.5,11.2,7.4c4.4,1.8,9.2,2.9,14.2,3v8.8h19v-8.8c5-0.2,10.1-1.2,14.5-3s8.2-4.3,11.4-7.4
		s5.7-6.7,7.5-10.7c1.8-4.1,2.7-8.4,2.7-13.1C384.9,48.2,384,43.8,382.2,39.8z M329.9,74.8c-3-0.1-5.5-0.7-8-1.9
		c-2.5-1.2-4.5-2.7-6.3-4.7s-3.1-4.3-4.1-6.9c-1-2.6-1.4-5.5-1.4-8.5c0-3,0.5-5.8,1.5-8.4c1-2.6,2.4-4.9,4.2-6.9
		c1.8-2,3.7-3.6,6.2-4.7c2.5-1.2,5-1.8,8-1.9L329.9,74.8L329.9,74.8z M367.7,61.3c-1,2.6-2.4,4.9-4.2,6.9c-1.8,2-4,3.5-6.4,4.7
		c-2.5,1.2-5.3,1.8-8.3,1.9V30.8c3,0.1,5.8,0.7,8.3,1.9c2.5,1.2,4.6,2.8,6.4,4.7c1.8,2,3.2,4.3,4.2,6.9c1,2.6,1.5,5.4,1.5,8.4
		C369.2,55.8,368.7,58.7,367.7,61.3z"/>
	<polygon class="st1" points="268.3,41.6 239.5,96.2 221.9,96.2 221.9,11.6 240.4,11.6 239.5,66 268.3,11.3 285.9,11.3 285.9,96.2 
		268.3,96.2 	"/>
	<path class="st1" d="M199.9,80.7v-70h-7.2h-10c-26,0-47,32-47.1,70h-9.8v15h84v-15H199.9z M181.9,80.7c0,0-13.3,0-28.6,0
		c0-29,12.6-52.4,28.6-52.4C181.9,45.5,181.9,80.7,181.9,80.7z"/>
</g>
</svg>
